# xmcd CD database file
#
# Track frame offsets:
#	150
#	25623
#	45012
#	68992
#	90055
#	111885
#	127867
#	144078
#	162787
#	178055
#	201549
#	218877
#
# Disc length: 3241 seconds
#
# Revision: 0
# Processed by: cddbd v1.5.2PL0 Copyright (c) Steve Scherf et al.
# Submitted via: CDex 1.70beta2
#
DISCID=930ca70c
DTITLE=Tiffany - Yesterday and Yesterdays - VRCL-18845
DYEAR=2009
DGENRE=Jazz
TTITLE0=Yesterday 〜 Yesterdays
TTITLE1=You'd Be So Nice To Come To
TTITLE2=On Green Dolphin Street
TTITLE3=Quiet Nights Of Quiet Stars
TTITLE4=Killing Me Softly With His Song
TTITLE5=Down St. Thomas Way
TTITLE6=Kojo No Tsuki
TTITLE7=In A Mellow Tone
TTITLE8=Sweet Georgia Brown
TTITLE9=Blame It On My Youth
TTITLE10=To Love And Be Loved
TTITLE11=Everything Must Change
EXTD=YEAR: 2009
EXTT0=
EXTT1=
EXTT2=
EXTT3=
EXTT4=
EXTT5=
EXTT6=
EXTT7=
EXTT8=
EXTT9=
EXTT10=
EXTT11=
PLAYORDER=
